<?xml version="1.0" encoding="UTF-8"?>
<svg id="Layer_2" data-name="Layer 2" xmlns="http://www.w3.org/2000/svg" viewBox="0 0 134.64 71.96">
  <defs>
    <style>
      .cls-1 {
        fill: #fff;
      }

      .cls-2 {
        fill: #201600;
      }
    </style>
  </defs>
  <g id="Objects">
    <g>
      <path class="cls-2" d="M134.21,37.94c-2.9-16.4-17.09-26.96-31.88-25-23.38,3-47,3.57-70.52,1.69C16.9,13.56,2.84,22.96,.33,37.05H.33c-2.51,14.05,9.35,28.78,26.7,31.25,26.74,3.69,53.79,4.59,80.75,2.69,17.52-1.14,29.32-16.69,26.42-33.05h0Z"/>
      <path class="cls-1" d="M103.04,14.52c-1.06,0-2.13,.07-3.18,.21-14.03,1.8-28.3,2.71-42.44,2.71-8.83,0-17.77-.36-26.58-1.06-.68-.05-1.39-.07-2.09-.07-13.24,0-24.36,8.53-26.46,20.3-.98,5.49,.49,11.29,4.15,16.34,4.58,6.32,11.93,10.62,20.18,11.79,17.03,2.35,34.38,3.54,51.57,3.54,8.82,0,17.77-.31,26.58-.94,7.64-.5,14.36-3.98,18.93-9.81,4.43-5.65,6.25-12.96,5-20.06-2.35-13.3-13.14-22.95-25.66-22.95Z"/>
      <g>
        <path class="cls-1" d="M20.75,26.28s14.25-15.23-1.5-24.49c0,0,21.38,.74,23.38,21.74"/>
        <path class="cls-2" d="M20.75,26.28c5.62-8.11,7.82-17.7-2.25-23.22,0,0-5.28-3.06-5.28-3.06l6.07,.32c9.16,.56,18.45,5.63,21.84,14.46,1.06,2.84,1.56,5.82,1.48,8.75C40.32,11.41,31.16,4.32,19.2,3.27c0,0,.8-2.74,.8-2.74,11.08,6.33,9.28,18.07,.75,25.76h0Z"/>
      </g>
    </g>
  </g>
</svg>