<?xml version="1.0" encoding="UTF-8"?>
<svg id="Layer_2" data-name="Layer 2" xmlns="http://www.w3.org/2000/svg" viewBox="0 0 78.77 72.46">
  <defs>
    <style>
      .cls-1 {
        fill: #fff;
      }

      .cls-2 {
        fill: #201600;
      }
    </style>
  </defs>
  <g id="Objects">
    <g>
      <path class="cls-2" d="M78.18,36.62c-4,19.49-21.21,31.2-39,29.8C21.32,64.8,3.88,53.11,.45,36.62-3.03,20.25,14.14,1.59,39.45,.09c25.37-1.51,42.77,17.16,38.73,36.53Z"/>
      <path class="cls-1" d="M41.07,63c-.88,0-1.77-.04-2.64-.1-17.88-1.62-33.04-13.2-36.03-27.52-1.24-5.85,.48-12.22,4.84-17.95C13.97,8.59,25.71,2.85,38.65,2.08c.89-.05,1.79-.08,2.68-.08,11.33,0,21.42,4.41,27.68,12.11,5.05,6.21,6.97,13.76,5.4,21.26-3.34,16.27-17.05,27.63-33.34,27.63Z"/>
      <g>
        <path class="cls-1" d="M15.59,42.22s-9.5,10.83-4,24.17c0,0,1.67-12.83,17.5-14.67"/>
        <path class="cls-2" d="M15.59,42.22c-.55,.93-1.05,1.88-1.49,2.84-.45,.96-.85,1.94-1.2,2.92l-.5,1.48c-.15,.5-.27,1-.4,1.5-.14,.5-.22,1.01-.33,1.51-.12,.5-.18,1.01-.24,1.51-.05,.51-.14,1.01-.14,1.52l-.08,1.51,.07,1.51c0,.5,.09,1,.16,1.49,.08,.49,.1,1,.22,1.48l.35,1.46c.09,.49,.28,.96,.45,1.43l.5,1.42-2.87,.38c.11-.66,.23-1.16,.4-1.71,.15-.54,.35-1.06,.55-1.58,.22-.51,.44-1.02,.7-1.5,.27-.48,.51-.98,.84-1.43,.32-.45,.59-.93,.96-1.34,.36-.42,.68-.87,1.07-1.26,.39-.39,.77-.79,1.18-1.15l1.29-1.01c.43-.34,.92-.59,1.37-.88l.69-.42,.74-.33c.49-.21,.98-.45,1.47-.64l1.52-.48c.26-.07,.51-.15,.76-.21l.78-.14c.52-.09,1.03-.19,1.55-.26,.52-.07,1.04-.07,1.56-.1l1.55-.03-1.47,.47c-.49,.16-.98,.26-1.45,.45l-1.41,.56-.7,.27c-.23,.1-.44,.23-.67,.34l-1.32,.66c-.43,.24-.83,.53-1.24,.79l-.61,.39-.57,.45c-.37,.31-.78,.57-1.12,.91l-1.02,1-.93,1.08c-.32,.35-.56,.76-.84,1.14-.29,.37-.49,.81-.74,1.2-.25,.4-.42,.84-.65,1.25-.2,.42-.37,.86-.55,1.3-.15,.44-.32,.88-.43,1.33-.13,.43-.23,.93-.29,1.27l-.98,5.88-1.89-5.5-.56-1.62c-.18-.54-.38-1.07-.48-1.64l-.36-1.67c-.11-.56-.14-1.13-.21-1.7-.05-.57-.11-1.14-.07-1.71l.04-1.7,.2-1.69c.05-.56,.22-1.11,.34-1.66,.12-.55,.25-1.1,.44-1.62,.19-.53,.31-1.08,.55-1.58,.23-.51,.43-1.03,.67-1.53l.76-1.47,.88-1.4c.32-.45,.61-.91,.96-1.34,.67-.87,1.4-1.68,2.21-2.4Z"/>
      </g>
    </g>
  </g>
</svg>