<?xml version="1.0" encoding="UTF-8"?>
<svg id="Layer_2" data-name="Layer 2" xmlns="http://www.w3.org/2000/svg" viewBox="0 0 138.99 55.97">
  <defs>
    <style>
      .cls-1 {
        fill: #fff;
      }

      .cls-2 {
        fill: #201600;
      }
    </style>
  </defs>
  <g id="Objects">
    <g>
      <path class="cls-2" d="M137.46,30.14c-6.46,12.53-22.58,18.67-35.63,16.42-21.29-3.92-42.95-3.64-63.89,.93-12.68,2.73-28.96-3.99-36.2-17.54h0C-5.39,15.62,10.51,.52,28.66,.66c28.12-1.4,55.11-.49,82.65,1.9,17.8,.66,32.57,14.25,26.15,27.57h0Z"/>
      <path class="cls-1" d="M31.03,44.46c-11.24,0-22.32-6.61-27.58-16.45-2.8-5.63-1.07-10.57,.88-13.72C8.65,7.32,17.94,2.63,27.44,2.63h.34c8.46-.42,17.13-.63,25.75-.63,17,0,34.53,.81,53.58,2.46,9.76,.37,18.92,5.04,22.9,11.65,1.67,2.76,3.14,7.11,.72,12.15-5.4,10.46-17.61,15.17-27.32,15.17-1.69,0-3.35-.14-4.93-.41-9.59-1.77-19.36-2.66-29.02-2.66-11.2,0-22.38,1.2-33.25,3.58-1.64,.35-3.39,.53-5.18,.53Z"/>
      <g>
        <path class="cls-1" d="M81.89,35.17s11.17,12.83-1.33,19.21c0,0,24.41,2.76,28.42-19.93"/>
        <path class="cls-2" d="M81.89,35.17c.72,.64,1.38,1.35,1.99,2.11,.62,.75,1.17,1.56,1.67,2.4,.51,.84,.93,1.75,1.29,2.7,.18,.47,.32,.96,.45,1.46,.13,.5,.2,1.01,.26,1.54,.04,.52,.07,1.06,.03,1.59-.03,.53-.09,1.08-.23,1.61-.1,.54-.31,1.06-.52,1.56l-.37,.74-.44,.7c-.31,.45-.65,.89-1.01,1.28-.37,.4-.75,.78-1.17,1.11-.4,.36-.85,.62-1.28,.93-.44,.28-.89,.52-1.34,.78l-.5-2.76c.68,.06,1.49,.08,2.24,.08,.77,0,1.53-.05,2.3-.08,1.53-.09,3.06-.28,4.56-.59,.75-.15,1.49-.33,2.23-.54,.74-.19,1.46-.42,2.18-.68,.72-.25,1.42-.55,2.11-.87,.68-.33,1.35-.68,2-1.07,.34-.18,.65-.39,.97-.6,.32-.21,.64-.41,.93-.65,.62-.44,1.19-.94,1.76-1.45,.53-.54,1.11-1.05,1.59-1.65,.52-.56,.97-1.19,1.43-1.81,.41-.66,.88-1.28,1.23-1.98l.56-1.03,.49-1.07c.36-.71,.6-1.46,.9-2.2,.28-.75,.5-1.52,.76-2.29-.09,.8-.14,1.61-.28,2.41-.16,.79-.28,1.61-.52,2.39l-.34,1.18-.43,1.16c-.27,.78-.66,1.52-1.02,2.26-.42,.72-.82,1.45-1.32,2.13-.46,.7-1.01,1.34-1.56,1.98-.58,.61-1.17,1.22-1.82,1.76-.31,.29-.65,.55-.98,.8-.33,.26-.67,.52-1.02,.75-.69,.49-1.43,.9-2.17,1.31-.75,.39-1.51,.75-2.29,1.08-1.55,.65-3.17,1.15-4.81,1.5-1.64,.36-3.29,.59-4.96,.72-.83,.06-1.67,.08-2.51,.07-.85-.01-1.65-.04-2.56-.13l-4.55-.48,4.05-2.29c.38-.21,.77-.4,1.13-.63,.35-.24,.73-.45,1.04-.72,.35-.24,.66-.51,.96-.79,.3-.28,.57-.58,.82-.9l.35-.49,.3-.52c.18-.36,.35-.72,.47-1.1,.15-.38,.23-.78,.3-1.19,.07-.41,.1-.83,.11-1.25,0-.43-.03-.86-.06-1.29-.05-.44-.11-.88-.2-1.31-.18-.88-.45-1.75-.76-2.62-.31-.87-.7-1.72-1.1-2.57-.42-.84-.86-1.69-1.37-2.5Z"/>
      </g>
    </g>
  </g>
</svg>