<?xml version="1.0" encoding="UTF-8"?>
<svg id="Layer_2" data-name="Layer 2" xmlns="http://www.w3.org/2000/svg" viewBox="0 0 134.64 71.87">
  <defs>
    <style>
      .cls-1 {
        fill: #fff;
      }

      .cls-2 {
        fill: #201600;
      }
    </style>
  </defs>
  <g id="Objects">
    <g>
      <path class="cls-2" d="M134.21,34.02c-2.9,16.4-17.09,26.96-31.88,25-23.38-3-47-3.57-70.52-1.69C16.9,58.4,2.84,49,.33,34.9H.33C-2.17,20.85,9.68,6.12,27.04,3.66,53.78-.03,80.82-.93,107.79,.97c17.52,1.14,29.32,16.69,26.42,33.05h0Z"/>
      <path class="cls-1" d="M103.04,55.75c-1.06,0-2.13-.07-3.18-.21-14.03-1.8-28.3-2.71-42.44-2.71-8.83,0-17.77,.36-26.58,1.06-.68,.05-1.39,.07-2.09,.07-13.24,0-24.36-8.53-26.46-20.3-.98-5.49,.49-11.29,4.15-16.34,4.58-6.32,11.93-10.62,20.18-11.79C43.66,3.19,61.01,2,78.2,2c8.82,0,17.77,.31,26.58,.94,7.64,.5,14.36,3.98,18.93,9.81,4.43,5.65,6.25,12.96,5,20.06-2.35,13.3-13.14,22.95-25.66,22.95Z"/>
      <g>
        <path class="cls-1" d="M32.09,45.67s14.25,15.23-1.5,24.49c0,0,21.38-.74,23.38-21.74"/>
        <path class="cls-2" d="M32.09,45.67c.91,.8,1.75,1.7,2.52,2.65,.78,.95,1.47,1.97,2.11,3.04,.64,1.07,1.15,2.22,1.57,3.42,.21,.6,.4,1.21,.53,1.85,.14,.63,.22,1.28,.27,1.93,.05,.66,.03,1.32,0,1.98-.07,.66-.17,1.33-.34,1.98-.06,.33-.2,.64-.3,.96-.1,.32-.23,.63-.38,.93-.26,.62-.62,1.19-.97,1.77-.39,.53-.76,1.1-1.22,1.58-.22,.24-.44,.5-.67,.73l-.73,.66c-.48,.46-1.02,.81-1.53,1.21-.53,.37-1.07,.71-1.61,1.06l-.8-2.74c.6-.04,1.33-.13,2-.24,.68-.11,1.36-.24,2.04-.39,1.35-.3,2.69-.69,3.99-1.18,.65-.24,1.28-.52,1.91-.8,.63-.28,1.25-.58,1.85-.92,.61-.33,1.19-.7,1.76-1.08,.57-.38,1.11-.81,1.66-1.23,.53-.44,1.06-.88,1.54-1.38,.51-.47,.95-1,1.4-1.52,.42-.55,.88-1.08,1.25-1.67,.42-.56,.74-1.19,1.11-1.79,.3-.64,.68-1.24,.94-1.91l.42-.98,.36-1.01c.27-.67,.44-1.37,.65-2.07,.2-.7,.35-1.41,.54-2.12-.02,.73,0,1.47-.05,2.21-.08,.73-.12,1.48-.26,2.21l-.2,1.1-.28,1.09c-.17,.73-.44,1.44-.69,2.15-.31,.69-.58,1.4-.96,2.06-.34,.68-.74,1.33-1.16,1.98-.45,.62-.89,1.25-1.4,1.82-.49,.6-1.03,1.14-1.58,1.68-.56,.53-1.15,1.02-1.76,1.49-.62,.46-1.25,.91-1.9,1.31-.65,.41-1.32,.79-2.01,1.14-.68,.36-1.39,.65-2.1,.94-1.42,.56-2.88,1.02-4.37,1.37-.74,.17-1.49,.33-2.25,.43-.77,.11-1.49,.2-2.35,.23l-5.45,.24,4.65-2.98c.47-.3,.96-.59,1.43-.9,.44-.34,.93-.64,1.32-1.01,.42-.36,.84-.71,1.21-1.11,.41-.37,.71-.81,1.06-1.22,.3-.44,.61-.88,.84-1.36,.14-.23,.25-.47,.34-.72,.1-.25,.22-.49,.29-.75,.18-.5,.3-1.03,.41-1.56,.07-.54,.14-1.08,.14-1.63,0-.55-.01-1.11-.08-1.67-.04-.56-.14-1.12-.26-1.68-.23-1.12-.61-2.22-1.03-3.32-.43-1.1-.96-2.16-1.52-3.21-.58-1.04-1.19-2.08-1.89-3.07Z"/>
      </g>
    </g>
  </g>
</svg>