<?xml version="1.0" encoding="UTF-8"?>
<svg id="Layer_2" data-name="Layer 2" xmlns="http://www.w3.org/2000/svg" viewBox="0 0 134.64 71.96">
  <defs>
    <style>
      .cls-1 {
        fill: #fff;
      }

      .cls-2 {
        fill: #201600;
      }
    </style>
  </defs>
  <g id="Objects">
    <g>
      <path class="cls-2" d="M.44,37.94C3.34,21.53,17.53,10.97,32.32,12.94c23.38,3,47,3.57,70.52,1.69,14.91-1.07,28.96,8.33,31.47,22.43h0c2.51,14.05-9.35,28.78-26.7,31.25-26.74,3.69-53.79,4.59-80.75,2.69C9.33,69.85-2.46,54.3,.44,37.94H.44Z"/>
      <path class="cls-1" d="M28.9,14.52c1.06,0,2.13,.07,3.18,.21,14.03,1.8,28.3,2.71,42.44,2.71,8.83,0,17.77-.36,26.58-1.06,.68-.05,1.39-.07,2.09-.07,13.24,0,24.36,8.53,26.46,20.3,.98,5.49-.49,11.29-4.15,16.34-4.58,6.32-11.93,10.62-20.18,11.79-17.03,2.35-34.38,3.54-51.57,3.54-8.82,0-17.77-.31-26.58-.94-7.64-.5-14.36-3.98-18.93-9.81-4.43-5.65-6.25-12.96-5-20.06,2.35-13.3,13.14-22.95,25.66-22.95Z"/>
      <g>
        <path class="cls-1" d="M113.9,26.28s-14.25-15.23,1.5-24.49c0,0-21.38,.74-23.38,21.74"/>
        <path class="cls-2" d="M113.9,26.28c-8.54-7.7-10.32-19.43,.75-25.76,0,0,.8,2.74,.8,2.74-11.97,1.06-21.13,8.15-23.43,20.27-.08-2.94,.42-5.92,1.48-8.75C96.9,5.95,106.18,.88,115.35,.32c0,0,6.07-.32,6.07-.32l-5.28,3.06c-10.07,5.52-7.86,15.12-2.25,23.22h0Z"/>
      </g>
    </g>
  </g>
</svg>