<?xml version="1.0" encoding="UTF-8"?>
<svg id="Layer_2" data-name="Layer 2" xmlns="http://www.w3.org/2000/svg" viewBox="0 0 145.82 57.35">
  <defs>
    <style>
      .cls-1 {
        fill: #fff;
      }

      .cls-2 {
        fill: #201600;
      }
    </style>
  </defs>
  <g id="Objects">
    <g>
      <path class="cls-2" d="M144.49,39.33c-7.25,15.54-31.91,18.48-56.98,17.64-25.18-1.66-50.27-4.52-56.48-17.64C24.58,26.58,48.9,1.34,88,.04c39.22-1.2,63.97,24.12,56.48,39.28Z"/>
      <path class="cls-1" d="M92.91,52.8c-2.27,0-4.67-.04-7.12-.12-22.45-1.48-46.96-4.04-52.44-15.63-1.4-2.76-.82-6.48,1.58-10.54C41.37,15.61,60.19,3.49,86.26,2.63c.84-.02,1.69-.04,2.52-.04,24.06,0,41.42,10.59,47.95,21.09,3.02,4.86,3.67,9.59,1.83,13.33-4.9,10.49-20.25,15.79-45.65,15.79Z"/>
      <path class="cls-2" d="M49.33,45.34c0,5.46-6.92,9.89-15.46,9.89s-15.46-4.42-15.46-9.89,6.92-9.88,15.46-9.88,15.46,4.42,15.46,9.88Z"/>
      <path class="cls-1" d="M43.72,44.58c0,3.95-5,7.14-11.16,7.14s-11.16-3.19-11.16-7.14,5-7.13,11.16-7.13,11.16,3.19,11.16,7.13Z"/>
      <path class="cls-2" d="M16.28,52.14c0,2.88-3.64,5.21-8.14,5.21S0,55.02,0,52.14s3.64-5.2,8.14-5.2,8.14,2.33,8.14,5.2Z"/>
      <path class="cls-1" d="M13.32,51.74c0,2.08-2.63,3.76-5.88,3.76s-5.87-1.68-5.87-3.76,2.63-3.76,5.87-3.76,5.88,1.68,5.88,3.76Z"/>
    </g>
  </g>
</svg>