<?xml version="1.0" encoding="UTF-8"?>
<svg id="Layer_2" data-name="Layer 2" xmlns="http://www.w3.org/2000/svg" viewBox="0 0 95.7 99.31">
  <defs>
    <style>
      .cls-1 {
        fill: #fff;
      }

      .cls-2 {
        fill: #201600;
      }
    </style>
  </defs>
  <g id="Objects">
    <g>
      <path class="cls-2" d="M87.17,65.3c-1.03,5.13-6.51,8.59-12.1,8.06-18.15-1.76-36.34-.97-53.94,2.16-5.41,.98-10.77-2.54-11.91-8.13C5.74,49.45,3.03,31.41,.11,13.36-.85,7.75,4.49,2.18,12.05,1.42,36.18-1.05,60.35-.29,83.92,3.6c7.38,1.22,12.57,6.78,11.68,11.91-2.72,16.6-5.27,33.27-8.44,49.8Z"/>
      <path class="cls-1" d="M19.62,71.25c-3.78,.23-7.22-2.44-8.01-6.37-2.43-12.57-4.52-25.41-6.5-37.86-.75-4.7-1.49-9.4-2.25-14.1-.68-4.05,2.68-8.03,7.85-9.04,.34-.07,.69-.12,1.05-.16,11.68-2.75,58.04-1.37,69.2,2.01,5.72,.99,9.95,5.36,9.28,9.26-.71,4.33-1.41,8.66-2.11,12.99-1.84,11.45-3.79,23.31-6,34.88-.77,3.85-5.13,6.56-9.54,6.12-17.68-1.83-35.39-.96-52.02,2.13-.33,.06-.65,.1-.96,.12Z"/>
      <g>
        <polyline class="cls-1" points="28.86 61.16 35.08 93.16 45.11 61.16"/>
        <path class="cls-2" d="M28.86,61.16c.84,2.6,1.55,5.23,2.26,7.86,.69,2.63,1.36,5.27,1.98,7.92,.65,2.64,1.21,5.3,1.8,7.95,.58,2.66,1.09,5.32,1.64,7.98l-2.89-.16c.41-1.34,.85-2.66,1.28-3.99l1.29-3.99c.92-2.64,1.78-5.3,2.75-7.93,.48-1.31,.94-2.63,1.43-3.94l1.49-3.93c.52-1.3,1.03-2.61,1.56-3.9,.53-1.3,1.08-2.59,1.66-3.87-.26,1.38-.55,2.76-.85,4.13-.3,1.37-.63,2.73-.94,4.1l-1.02,4.07c-.34,1.36-.72,2.7-1.08,4.06-.7,2.71-1.52,5.38-2.27,8.07l-1.22,4.01c-.41,1.34-.8,2.68-1.23,4.01l-1.82,5.71-1.07-5.87c-.49-2.67-1.01-5.34-1.47-8.02-.44-2.68-.92-5.36-1.31-8.05-.42-2.68-.78-5.38-1.13-8.08-.32-2.71-.64-5.41-.84-8.14Z"/>
      </g>
    </g>
  </g>
</svg>