<?xml version="1.0" encoding="UTF-8"?>
<svg id="Layer_2" data-name="Layer 2" xmlns="http://www.w3.org/2000/svg" viewBox="0 0 127.8 86.32">
  <defs>
    <style>
      .cls-1 {
        fill: #fff;
      }

      .cls-2 {
        fill: #201600;
      }
    </style>
  </defs>
  <g id="Objects">
    <g>
      <path class="cls-2" d="M126.97,45.25c3.96-9.1-6.55-22.01-24.11-25.26-2.29-.43-4.56-.67-6.77-.74,.14-.41,.27-.83,.34-1.25C98.38,9.08,82.44-1.1,60.87,.1,39.7,1.22,24.46,12.29,25.9,20.35c-2.01,.22-4.1,.61-6.22,1.18C6.43,25.14-1.97,34.22,.4,39.73c1.22,3.05,5.07,4.62,10.05,5.04-3.61,3.98-4.93,7.91-3.67,11.07,3.43,7.74,19.76,8.75,37.05,6.98,.77-.09,1.52-.19,2.27-.29,6.97,4.84,18.31,8.24,30.95,10.16,18.15,2.61,35.33,1.08,39.62-9.02,1.1-2.92,.75-6.26-1-9.65,5.27-1.49,9.55-4.37,11.31-8.77Z"/>
      <path class="cls-1" d="M89.36,70.12c-4.24,0-8.9-.36-13.86-1.07-12.84-1.95-23.27-5.35-29.36-9.58l-.62-.43-.75,.1c-.72,.1-1.44,.19-2.18,.28-4.64,.48-8.99,.72-12.89,.72-11.88,0-19.43-2.27-21.25-6.38-.91-2.27,.23-5.38,3.24-8.69l2.65-2.92-3.93-.34c-4.46-.38-7.35-1.7-8.16-3.7-.54-1.25-.08-2.69,.4-3.67,1.89-3.91,7.91-8.98,17.11-11.48,1.92-.52,3.86-.89,5.77-1.09l2.08-.22-.37-2.06c-.35-1.97,.85-3.99,1.93-5.35,4.33-5.46,15.41-11.33,30.37-12.12,1.1-.06,2.2-.09,3.28-.09,13.75,0,23.8,4.83,27.66,9.62,1.07,1.33,2.24,3.37,1.76,5.56-.06,.34-.15,.65-.27,.99l-.89,2.52,2.67,.09c2.1,.07,4.22,.3,6.3,.69,11.58,2.15,18.58,8.32,21.27,13.38,1.14,2.15,2.22,5.39,.83,8.57-1.75,4.38-6.28,6.47-9.78,7.46l-2.3,.65,1.1,2.12c1.45,2.81,1.75,5.52,.88,7.84-3.02,7.12-14.01,8.63-22.69,8.63h0Z"/>
      <path class="cls-2" d="M50.86,78.68c0,4.22-5.35,7.64-11.95,7.64s-11.95-3.42-11.95-7.64,5.35-7.64,11.95-7.64,11.95,3.42,11.95,7.64Z"/>
      <path class="cls-1" d="M46.52,78.08c0,3.05-3.86,5.52-8.63,5.52s-8.63-2.47-8.63-5.52,3.86-5.51,8.63-5.51,8.63,2.47,8.63,5.51Z"/>
    </g>
  </g>
</svg>