<?xml version="1.0" encoding="UTF-8"?>
<svg id="Layer_2" data-name="Layer 2" xmlns="http://www.w3.org/2000/svg" viewBox="0 0 127.16 98.65">
  <defs>
    <style>
      .cls-1 {
        fill: #fff;
      }

      .cls-2 {
        fill: #201600;
      }
    </style>
  </defs>
  <g id="Objects">
    <g>
      <path class="cls-2" d="M104.56,76.68c-2.41,5.76-8.68,8.32-14.18,6.37-18.02-6.38-37.59-7.67-56.53-3.69-5.8,1.17-12.17-1.35-14.25-6.32C13.2,56.87,6.8,40.72,.41,24.56c-2.08-4.95,4.05-12.64,14-15.84C46.04-1.47,80.01-2.76,112.56,5.03c10.25,2.42,16.48,10.15,14.08,15.89-7.36,18.59-14.72,37.18-22.08,55.76Z"/>
      <path class="cls-1" d="M91.52,79.43c-1.02,0-2.03-.17-3-.52-11.06-3.91-22.65-5.9-34.46-5.9-7.21,0-14.45,.75-21.52,2.24-.76,.15-1.57,.23-2.38,.23-4.24,0-7.97-2.1-9.28-5.23L2.26,23.2c-.54-1.28-.11-2.71,.33-3.69,1.72-3.74,6.45-7.33,12.06-9.14C31.91,4.82,49.88,2,68.08,2c13.74,0,27.5,1.62,40.89,4.83,5.47,1.29,10.03,4.38,11.9,8.04,.61,1.2,1.18,2.99,.44,4.75l-21.47,54.22c-1.41,3.38-4.68,5.59-8.32,5.59Z"/>
      <g>
        <path class="cls-1" d="M29.14,68.25s18.92,9.96,5.44,28.12c0,0,22.31-4.62,28.31-30"/>
        <path class="cls-2" d="M29.14,68.25c1.28,.55,2.5,1.26,3.65,2.08,1.16,.81,2.22,1.75,3.21,2.79,.5,.52,.96,1.07,1.39,1.65,.43,.58,.84,1.19,1.19,1.83,.19,.31,.35,.64,.51,.97,.17,.33,.32,.66,.45,1.01,.28,.68,.49,1.4,.67,2.12,.18,.72,.28,1.46,.37,2.21,.04,.75,.09,1.5,.04,2.24-.02,.75-.16,1.48-.27,2.22-.17,.72-.31,1.46-.55,2.15-.2,.71-.47,1.4-.76,2.08-.26,.69-.62,1.32-.95,1.98-.35,.64-.74,1.25-1.11,1.88l-1.22,1.79-1.48-2.32c.74-.18,1.61-.45,2.41-.73,.81-.3,1.63-.59,2.43-.94,1.6-.67,3.16-1.47,4.66-2.36,1.49-.9,2.95-1.86,4.34-2.92,.69-.54,1.37-1.09,2.02-1.67,.65-.58,1.29-1.18,1.91-1.8,.63-.61,1.22-1.26,1.81-1.91,.56-.67,1.15-1.33,1.66-2.05,.54-.69,1.06-1.41,1.55-2.14,.5-.73,.96-1.49,1.41-2.25,.42-.78,.9-1.54,1.28-2.34,.42-.79,.79-1.6,1.15-2.42,.4-.81,.69-1.66,1.04-2.49,.33-.84,.62-1.69,.94-2.55-.16,.89-.28,1.79-.47,2.69-.22,.88-.39,1.79-.67,2.66-.25,.88-.53,1.75-.86,2.61-.3,.87-.66,1.72-1.03,2.56-.39,.83-.8,1.66-1.24,2.48-.45,.81-.9,1.62-1.42,2.39-.49,.79-1.06,1.53-1.6,2.28-.57,.73-1.15,1.47-1.77,2.16-.6,.71-1.27,1.37-1.93,2.02-.67,.65-1.37,1.27-2.08,1.88-1.44,1.2-2.95,2.31-4.55,3.28-1.6,.97-3.26,1.85-4.98,2.6-.86,.38-1.73,.73-2.63,1.03-.91,.3-1.77,.57-2.79,.8l-3.71,.83,2.23-3.15,1.15-1.62c.34-.56,.7-1.11,1.03-1.68,.29-.58,.65-1.14,.9-1.74,.28-.59,.55-1.18,.75-1.79,.25-.6,.38-1.22,.57-1.84,.12-.63,.28-1.25,.32-1.88,.1-.63,.1-1.27,.12-1.91-.03-.64-.06-1.27-.17-1.91-.1-.63-.23-1.26-.44-1.88-.08-.31-.18-.62-.3-.92-.11-.31-.22-.61-.36-.91-.52-1.2-1.22-2.34-1.99-3.43-.78-1.09-1.69-2.1-2.66-3.07-.98-.95-2.02-1.87-3.16-2.66Z"/>
      </g>
    </g>
  </g>
</svg>