<?xml version="1.0" encoding="UTF-8"?>
<svg id="Layer_2" data-name="Layer 2" xmlns="http://www.w3.org/2000/svg" viewBox="0 0 127.06 83.77">
  <defs>
    <style>
      .cls-1 {
        fill: #fff;
      }

      .cls-2 {
        fill: #201600;
      }
    </style>
  </defs>
  <g id="Objects">
    <g>
      <path class="cls-2" d="M125.35,45.88c-8.67,18.54-35.62,23.19-62.31,22.17-26.82-1.97-54.29-6.51-61.72-22.17C-6.37,30.63,20.18,1.62,63.63,.05c43.59-1.42,70.65,27.69,61.72,45.83Z"/>
      <path class="cls-1" d="M67.76,64.97c-2.1,0-4.27-.04-6.46-.13-23.17-1.7-50.74-5.54-57.71-20.23-1.94-3.85-1.25-8.92,1.94-14.32C13.04,17.58,33.38,4.29,61.87,3.26c.96-.03,1.92-.05,2.88-.05,27.88,0,45.71,12.75,52.5,23.68,3.93,6.31,4.71,12.6,2.2,17.69-7.88,16.85-32.46,20.38-51.69,20.38Z"/>
      <g>
        <polyline class="cls-1" points="85.36 57.99 110.6 80.35 109.4 44.06"/>
        <path class="cls-2" d="M85.36,57.99c2.31,1.63,4.55,3.34,6.78,5.06,1.11,.86,2.21,1.74,3.31,2.61,1.11,.87,2.19,1.77,3.28,2.65,2.19,1.77,4.33,3.59,6.48,5.4,2.16,1.8,4.25,3.68,6.37,5.52l-2.48,1.16c-.07-1.51-.09-3.02-.14-4.54l-.11-4.54-.05-4.54c-.01-1.51-.03-3.03-.01-4.54,0-3.03,.06-6.06,.14-9.09,.06-1.52,.11-3.03,.18-4.55,.07-1.52,.16-3.03,.28-4.55,.22,1.51,.41,3.01,.58,4.52,.17,1.51,.32,3.02,.48,4.53,.28,3.02,.53,6.04,.74,9.06,.12,1.51,.2,3.02,.29,4.53l.25,4.53,.19,4.53c.06,1.51,.14,3.02,.16,4.54l.06,3.47-2.54-2.31c-2.08-1.89-4.2-3.74-6.25-5.66-2.06-1.92-4.12-3.82-6.14-5.78-1.01-.98-2.04-1.94-3.03-2.94-1-.99-2.01-1.97-2.99-2.98-1.97-2.01-3.94-4.02-5.84-6.12Z"/>
      </g>
    </g>
  </g>
</svg>