<?xml version="1.0" encoding="UTF-8"?>
<svg id="Layer_2" data-name="Layer 2" xmlns="http://www.w3.org/2000/svg" viewBox="0 0 120.17 91.67">
  <defs>
    <style>
      .cls-1 {
        fill: #fff;
      }

      .cls-2 {
        fill: #201600;
      }
    </style>
  </defs>
  <g id="Objects">
    <g>
      <path class="cls-2" d="M15.17,48.17c0-8.12,4.3-15.23,10.75-19.19-.78-2.02-1.23-4.22-1.23-6.52,0-10.01,8.12-18.12,18.12-18.12,4.69,0,8.95,1.8,12.17,4.72,2.5-5.34,7.9-9.05,14.19-9.05,5.59,0,10.48,2.93,13.25,7.33,1.73-1.84,4.19-3,6.92-3,5.19,0,9.41,4.17,9.49,9.34,1.48-.43,3.05-.68,4.67-.68,9.2,0,16.67,7.46,16.67,16.67,0,5.89-3.06,11.05-7.67,14.02,4.63,3.15,7.67,8.46,7.67,14.48,0,9.66-7.83,17.5-17.5,17.5-4.65,0-8.87-1.83-12.01-4.79-.89,5.09-5.32,8.96-10.66,8.96-3.89,0-7.29-2.06-9.19-5.14-2.23,6.84-8.86,11.8-16.7,11.8-9.32,0-16.91-7.02-17.45-15.86-11.96-.53-21.49-10.39-21.49-22.48Z"/>
      <path class="cls-1" d="M53.68,82.35c6.64,0,12.44-4.08,14.41-10.15l1.3-3.99,2.21,3.57c1.58,2.56,4.31,4.08,7.3,4.08,4.18,0,7.74-2.99,8.46-7.11l.62-3.57,2.63,2.49c2.82,2.67,6.5,4.13,10.36,4.13,8.32,0,15.1-6.77,15.1-15.1,0-5-2.48-9.67-6.62-12.49l-2.44-1.66,2.48-1.59c4.12-2.65,6.58-7.14,6.58-12.01,0-7.88-6.41-14.28-14.28-14.28-1.34,0-2.69,.2-4.01,.58l-2.45,.72-.04-2.55c-.06-3.96-3.34-7.18-7.3-7.18-2.03,0-3.92,.82-5.32,2.31l-1.73,1.83-1.34-2.13c-2.46-3.9-6.67-6.23-11.26-6.23-5.14,0-9.87,3.02-12.05,7.69l-1.12,2.39-1.96-1.77c-2.91-2.64-6.65-4.09-10.54-4.09-8.66,0-15.71,7.05-15.71,15.7,0,1.92,.36,3.82,1.07,5.65l.58,1.51-1.38,.85c-5.97,3.67-9.54,10.03-9.54,17.03,0,10.71,8.38,19.47,19.07,19.94l1.75,.08,.11,1.75c.46,7.63,7.07,13.61,15.05,13.61Z"/>
      <path class="cls-2" d="M29,79.83c0,4.6-4.26,8.33-9.52,8.33s-9.52-3.73-9.52-8.33,4.26-8.33,9.52-8.33,9.52,3.73,9.52,8.33Z"/>
      <path class="cls-1" d="M18.65,85.46c-4.11,0-7.46-2.82-7.46-6.28s3.35-6.28,7.46-6.28,7.46,2.82,7.46,6.28-3.35,6.28-7.46,6.28Z"/>
      <path class="cls-2" d="M8.17,88.17c0,1.93-1.83,3.5-4.08,3.5s-4.08-1.57-4.08-3.5,1.83-3.5,4.08-3.5,4.08,1.57,4.08,3.5Z"/>
      <path class="cls-1" d="M3.6,89.34c-1.27,0-2.35-.77-2.35-1.69s1.08-1.69,2.35-1.69,2.35,.77,2.35,1.69-1.08,1.69-2.35,1.69Z"/>
    </g>
  </g>
</svg>