<?xml version="1.0" encoding="UTF-8"?>
<svg id="Layer_2" data-name="Layer 2" xmlns="http://www.w3.org/2000/svg" viewBox="0 0 134.64 94.23">
  <defs>
    <style>
      .cls-1 {
        fill: #fff;
      }

      .cls-2 {
        fill: #201600;
      }
    </style>
  </defs>
  <g id="Objects">
    <g>
      <path class="cls-2" d="M.44,50.56C3.34,29.5,17.53,15.95,32.32,18.47c23.38,3.85,47,4.58,70.52,2.17,14.91-1.37,28.96,10.7,31.47,28.79h0c2.51,18.04-9.35,36.95-26.7,40.11-26.74,4.73-53.79,5.89-80.75,3.45C9.33,91.52-2.46,71.57,.44,50.56H.44Z"/>
      <path class="cls-1" d="M28.9,19.99c1.06,0,2.13,.09,3.18,.28,14.03,2.36,28.3,3.56,42.44,3.56,8.83,0,17.77-.47,26.58-1.39,.68-.06,1.39-.1,2.09-.1,13.24,0,24.36,11.19,26.46,26.62,.98,7.2-.49,14.81-4.15,21.44-4.58,8.29-11.93,13.93-20.18,15.46-17.03,3.08-34.38,4.64-51.57,4.64-8.82,0-17.77-.41-26.58-1.23-7.64-.65-14.36-5.22-18.93-12.87-4.43-7.41-6.25-17-5-26.32,2.35-17.44,13.14-30.1,25.66-30.1Z"/>
      <g>
        <path class="cls-1" d="M119.57,31.75c-1.79-2.77-5.03-8.66-5.39-16.71-.22-4.99,.74-9.09,1.62-11.79-3.17,1.85-9.2,5.95-13.61,13.51-2.75,4.71-3.94,9.15-4.49,12.25"/>
        <path class="cls-2" d="M119.57,31.75c-3.19-3.85-5.35-8.63-6.26-13.68-.45-2.53-.59-5.12-.41-7.7,.16-2.58,.71-5.13,1.48-7.6l2.16,1.75c-2.23,1.34-4.38,2.83-6.32,4.58-1.98,1.7-3.74,3.64-5.36,5.7-1.58,2.09-3.02,4.32-4.19,6.7-1.21,2.37-2.16,4.89-2.98,7.49,.13-2.73,.71-5.44,1.57-8.08,.45-1.31,.97-2.6,1.57-3.86,.61-1.25,1.32-2.46,2.06-3.65,1.52-2.35,3.35-4.51,5.39-6.45,2.07-1.9,4.31-3.62,6.76-5.02l3.43-1.96-1.27,3.7c-.77,2.24-1.23,4.58-1.54,6.93-.3,2.36-.28,4.75-.11,7.14,.24,2.38,.65,4.77,1.35,7.1,.67,2.34,1.59,4.63,2.66,6.88Z"/>
      </g>
    </g>
  </g>
</svg>