<?xml version="1.0" encoding="UTF-8"?>
<svg id="Layer_2" data-name="Layer 2" xmlns="http://www.w3.org/2000/svg" viewBox="0 0 118.71 49.67">
  <defs>
    <style>
      .cls-1 {
        fill: #fff;
      }

      .cls-2 {
        fill: #201600;
      }
    </style>
  </defs>
  <g id="Objects">
    <g>
      <path class="cls-2" d="M107.02,37.41c-2.46,5.43-10.24,10.58-16.99,11.17-19.36,1.84-38.87,1.34-58.08-1.5-6.7-.96-14.24-6.29-16.54-11.42C11.37,26.86,7.92,18.11,5.03,9.47c-1.64-5.03,1.64-7.79,7.06-6.53C44.94,10.49,79.09,9.6,111.36,.39c5.32-1.56,8.55,1.62,6.93,7.31-3,10.13-6.76,20.06-11.26,29.7Z"/>
      <path class="cls-1" d="M65.09,46.13c-11.23,0-22.55-.82-33.64-2.43-5.72-.8-12.47-5.33-14.45-9.68-3.8-8.12-7.13-16.38-9.93-24.56-.43-1.31-.41-2.39,.07-3.04,.59-.8,1.84-.92,2.53-.92,.59,0,1.24,.08,1.93,.24,14.26,3.22,28.91,4.84,43.52,4.84,17.97,0,35.82-2.45,53.06-7.27,.7-.2,1.34-.3,1.91-.3,1,0,1.74,.29,2.18,.86,.63,.82,.71,2.28,.2,4.01-2.85,9.44-6.47,18.79-10.74,27.77-2.11,4.55-9.02,8.97-14.79,9.47-7.24,.68-14.59,1.02-21.85,1.02Z"/>
      <g>
        <polyline class="cls-1" points="17.4 23.33 3.62 41.55 27.03 37.15"/>
        <path class="cls-2" d="M17.4,23.33c-.88,1.72-1.87,3.36-2.85,5l-1.52,2.43c-.51,.81-1.05,1.59-1.57,2.39-1.04,1.6-2.17,3.13-3.25,4.71l-3.39,4.6-1.47-2.38c1.95-.36,3.91-.71,5.87-1.01,1.96-.29,3.92-.62,5.9-.85,1.97-.27,3.95-.48,5.93-.68,1.99-.17,3.97-.34,5.99-.39-1.89,.69-3.8,1.25-5.72,1.81-1.92,.54-3.84,1.06-5.77,1.53-1.92,.5-3.87,.9-5.8,1.35-1.94,.43-3.89,.81-5.83,1.19l-3.9,.75,2.43-3.13,3.5-4.51c1.22-1.47,2.38-2.97,3.64-4.41,.62-.72,1.23-1.45,1.87-2.16l1.92-2.13c1.32-1.39,2.62-2.79,4.04-4.11Z"/>
      </g>
    </g>
  </g>
</svg>