<?xml version="1.0" encoding="UTF-8"?>
<svg id="Layer_2" data-name="Layer 2" xmlns="http://www.w3.org/2000/svg" viewBox="0 0 94.72 105.73">
  <defs>
    <style>
      .cls-1 {
        fill: #fff;
      }

      .cls-2 {
        fill: #201600;
      }
    </style>
  </defs>
  <g id="Objects">
    <g>
      <path class="cls-2" d="M94.72,45.05c-9.39,1.55-16.64,23.87-9.04,27.84-20.99-5.39-17.65,16.94-17.04,32.84-9.78-30.23-33.01-23.01-35.91-15.63,2.9-7.38-16.08-21.18-23.68-17.21,7.59-3.97,.34-26.29-9.04-27.84,9.39,1.55,16.64-20.77,9.04-27.84,7.59,7.07,26.58-6.73,23.68-17.21,2.9,10.48,26.38,10.48,29.28,0-2.9,10.48,16.08,24.28,23.68,17.21-7.59,7.07-.34,29.39,9.04,27.84Z"/>
      <path class="cls-1" d="M64.3,92.39c-6.76-11.49-15.75-12.95-19.85-12.95s-8.02,1.31-10.77,3.37c-.35-.86-.83-1.74-1.44-2.64-3.56-5.23-11.8-11.02-18.55-11.68,.72-2.12,.86-4.81,.36-7.92-.94-5.88-3.96-12.25-8.03-15.72,2.54-1.63,4.79-4.64,6.39-8.7,1.79-4.55,2.6-10.33,1.29-14.94,.27,.02,.54,.03,.82,.03,5.52,0,12.27-3.82,16.43-9.28,1.34-1.76,2.3-3.57,2.85-5.35,3.35,2.7,8.28,3.76,12.45,3.76s9.1-1.06,12.45-3.76c.55,1.78,1.51,3.58,2.85,5.35,4.16,5.46,10.91,9.28,16.43,9.28,.28,0,.55,0,.82-.03-1.31,4.61-.5,10.4,1.29,14.94,1.6,4.06,3.84,7.07,6.38,8.7-4.07,3.47-7.09,9.84-8.03,15.72-.49,3.04-.37,5.69,.31,7.78-.41-.03-.81-.04-1.2-.04-3.67,0-6.64,1.16-8.81,3.45-4.24,4.47-4.69,12.53-4.43,20.62Z"/>
    </g>
  </g>
</svg>