<?xml version="1.0" encoding="UTF-8"?>
<svg id="Layer_2" data-name="Layer 2" xmlns="http://www.w3.org/2000/svg" viewBox="0 0 134.64 72.82">
  <defs>
    <style>
      .cls-1 {
        fill: #fff;
      }

      .cls-2 {
        fill: #201600;
      }
    </style>
  </defs>
  <g id="Objects">
    <g>
      <path class="cls-2" d="M134.21,38.81c-2.9-16.4-17.09-26.96-31.88-25-23.38,3-47,3.57-70.52,1.69C16.9,14.42,2.84,23.83,.33,37.92H.33c-2.51,14.05,9.35,28.78,26.7,31.25,26.74,3.69,53.79,4.59,80.75,2.69,17.52-1.14,29.32-16.69,26.42-33.05h0Z"/>
      <path class="cls-1" d="M103.04,15.39c-1.06,0-2.13,.07-3.18,.21-14.03,1.8-28.3,2.71-42.44,2.71-8.83,0-17.77-.36-26.58-1.06-.68-.05-1.39-.07-2.09-.07-13.24,0-24.36,8.53-26.46,20.3-.98,5.49,.49,11.29,4.15,16.34,4.58,6.32,11.93,10.62,20.18,11.79,17.03,2.35,34.38,3.54,51.57,3.54,8.82,0,17.77-.31,26.58-.94,7.64-.5,14.36-3.98,18.93-9.81,4.43-5.65,6.25-12.96,5-20.06-2.35-13.3-13.14-22.95-25.66-22.95Z"/>
      <g>
        <polyline class="cls-1" points="29.95 19.44 8.08 2.7 11.18 32.19"/>
        <path class="cls-2" d="M29.95,19.44c-1.98-1.19-3.9-2.46-5.82-3.73-.96-.64-1.9-1.29-2.85-1.94-.95-.64-1.89-1.31-2.83-1.97-1.89-1.31-3.74-2.67-5.59-4.02-1.86-1.34-3.68-2.75-5.52-4.12l1.95-1.09c.15,1.23,.25,2.46,.38,3.69l.36,3.69,.3,3.7c.1,1.23,.2,2.46,.28,3.7,.17,2.47,.31,4.94,.42,7.41,.04,1.24,.09,2.48,.12,3.72,.03,1.24,.04,2.48,.04,3.72-.26-1.22-.51-2.43-.74-3.65-.23-1.22-.44-2.44-.65-3.66-.41-2.44-.79-4.89-1.13-7.34-.19-1.22-.34-2.45-.5-3.68l-.47-3.68-.42-3.68c-.14-1.23-.29-2.45-.4-3.69l-.25-2.82,2.2,1.73c1.81,1.42,3.64,2.8,5.42,4.25,1.79,1.44,3.58,2.87,5.34,4.35,.88,.74,1.77,1.46,2.64,2.22,.87,.75,1.75,1.49,2.61,2.25,1.73,1.52,3.45,3.05,5.12,4.65Z"/>
      </g>
    </g>
  </g>
</svg>