<?xml version="1.0" encoding="UTF-8"?>
<svg id="Layer_2" data-name="Layer 2" xmlns="http://www.w3.org/2000/svg" viewBox="0 0 78.77 78.03">
  <defs>
    <style>
      .cls-1 {
        fill: #fff;
      }

      .cls-2 {
        fill: #201600;
      }
    </style>
  </defs>
  <g id="Objects">
    <g>
      <path class="cls-2" d="M.58,41.41C4.59,21.92,21.79,10.21,39.58,11.61c17.86,1.62,35.3,13.31,38.74,29.8,3.47,16.37-13.7,35.02-39,36.53C13.95,79.45-3.45,60.78,.58,41.41Z"/>
      <path class="cls-1" d="M36.01,13.29c.88,0,1.77,.04,2.64,.1,17.88,1.62,33.04,13.2,36.03,27.52,1.24,5.85-.48,12.22-4.84,17.95-6.73,8.84-18.48,14.57-31.41,15.34-.89,.05-1.79,.08-2.68,.08-11.33,0-21.42-4.41-27.68-12.11-5.05-6.21-6.97-13.76-5.4-21.26C6.01,24.65,19.72,13.29,36.01,13.29Z"/>
      <g>
        <path class="cls-1" d="M66.01,30.14s9.5-10.83,4-24.17c0,0-1.67,12.83-17.5,14.67"/>
        <path class="cls-2" d="M66.01,30.14c4.2-7.07,5.88-15.87,2.62-23.6,0,0,2.87-.38,2.87-.38-1.01,5.49-4.74,10.3-9.78,12.62-2.84,1.38-6.08,1.9-9.2,1.86,1.42-.47,2.97-.88,4.33-1.48,.8-.27,1.92-.91,2.69-1.27,1.23-.74,2.47-1.58,3.54-2.54,2.76-2.48,4.78-5.96,5.46-9.57,0,0,.91-5.78,.91-5.78,1.22,3.64,3.35,8.18,3.56,12.03,.57,6.65-2.12,13.58-6.98,18.11h0Z"/>
      </g>
    </g>
  </g>
</svg>