<?xml version="1.0" encoding="UTF-8"?>
<svg id="Layer_2" data-name="Layer 2" xmlns="http://www.w3.org/2000/svg" viewBox="0 0 128.89 76.2">
  <defs>
    <style>
      .cls-1 {
        fill: #fff;
      }

      .cls-2 {
        fill: #201600;
      }
    </style>
  </defs>
  <g id="Objects">
    <g>
      <path class="cls-2" d="M3.54,30.32C12.21,11.77,39.16,7.13,65.85,8.15c26.82,1.97,54.29,6.51,61.72,22.17,7.69,15.25-18.86,44.26-62.31,45.83C21.67,77.57-5.39,48.46,3.54,30.32Z"/>
      <path class="cls-1" d="M57.55,10.17c2.1,0,4.27,.04,6.46,.13,23.17,1.7,50.74,5.54,57.71,20.23,1.94,3.85,1.25,8.92-1.94,14.32-7.51,12.71-27.85,26-56.34,27.03-.96,.03-1.92,.05-2.88,.05-27.88,0-45.71-12.75-52.5-23.68-3.93-6.31-4.71-12.6-2.2-17.69C13.75,13.7,38.32,10.17,57.55,10.17Z"/>
      <g>
        <polyline class="cls-1" points="34.35 14.22 2.69 2.62 17.07 35.96"/>
        <path class="cls-2" d="M34.35,14.22c-2.75-.67-5.45-1.45-8.16-2.23-1.35-.39-2.69-.82-4.04-1.22-1.35-.4-2.68-.85-4.02-1.27-2.68-.84-5.34-1.76-8-2.66-2.67-.89-5.3-1.88-7.95-2.81l1.88-1.99c.62,1.38,1.19,2.78,1.78,4.17l1.76,4.18,1.7,4.21c.57,1.4,1.14,2.8,1.67,4.22,1.1,2.82,2.16,5.66,3.19,8.51,.5,1.43,1.01,2.86,1.5,4.3,.49,1.44,.96,2.88,1.4,4.34-.75-1.32-1.48-2.66-2.19-4-.71-1.34-1.4-2.69-2.1-4.04-1.36-2.71-2.7-5.42-4-8.16-.66-1.36-1.29-2.74-1.92-4.11l-1.89-4.13-1.83-4.15c-.61-1.39-1.23-2.76-1.81-4.16L0,0,3.2,1.22c2.63,1,5.27,1.95,7.88,2.99,2.62,1.03,5.23,2.05,7.83,3.14,1.3,.54,2.6,1.06,3.89,1.63,1.29,.56,2.59,1.1,3.87,1.68,2.57,1.15,5.14,2.3,7.67,3.57Z"/>
      </g>
    </g>
  </g>
</svg>