<?xml version="1.0" encoding="UTF-8"?>
<svg id="Layer_2" data-name="Layer 2" xmlns="http://www.w3.org/2000/svg" viewBox="0 0 106.3 88.69">
  <defs>
    <style>
      .cls-1 {
        fill: #fff;
      }

      .cls-2 {
        fill: #201600;
      }
    </style>
  </defs>
  <g id="Objects">
    <g>
      <path class="cls-2" d="M106.28,39.32c.92,25.23-22.86,42.04-52.85,36.43C23.46,70.16-3.57,64.99,.39,39.32,2.53,25.41,26.15,6.61,54.68,.99c28.49-5.58,50.68,13.06,51.6,38.32Z"/>
      <path class="cls-1" d="M63.17,72.93c-3.5,0-7.11-.34-10.73-1.02C23.64,66.54-1.23,61.9,2.36,38.64,4.28,26.18,26.64,8.25,53.68,2.93c3.15-.62,6.3-.93,9.36-.93,21.58,0,37.8,15.32,38.57,36.42,.33,8.92-2.65,16.91-8.61,23.09-7.1,7.37-17.7,11.42-29.83,11.42Z"/>
      <g>
        <path class="cls-1" d="M19.84,49.65s-7.5,17.33-1.67,31.83c0,0,.5-12.67,18.33-19.83"/>
        <path class="cls-2" d="M19.84,49.65c-.36,1.32-.67,2.64-.95,3.97l-.4,1.99c-.14,.66-.22,1.33-.34,1.99-.13,.66-.2,1.33-.3,1.99-.11,.66-.16,1.33-.23,1.99-.08,.66-.15,1.32-.19,1.99-.04,.66-.11,1.32-.11,1.99,0,.66-.02,1.32-.05,1.98,0,.66,.03,1.32,.04,1.97,0,.66,.06,1.31,.13,1.96,.08,.65,.09,1.31,.2,1.95l.3,1.93c.1,.64,.3,1.26,.44,1.89,.15,.63,.3,1.26,.54,1.86l.61,1.83-2.85,.49c.06-.79,.18-1.37,.33-2.01,.15-.63,.33-1.24,.54-1.84,.41-1.2,.95-2.35,1.59-3.43,.29-.56,.66-1.07,1-1.59,.33-.53,.73-1.01,1.12-1.5,.38-.5,.79-.96,1.23-1.39,.44-.43,.84-.9,1.32-1.29l1.4-1.2c.47-.4,1-.71,1.49-1.07,.5-.34,.99-.71,1.53-.99l1.58-.89c.52-.31,1.09-.52,1.63-.77,.55-.25,1.1-.49,1.65-.72,1.13-.4,2.27-.75,3.4-1.1l-1.53,.91-1.53,.88c-.49,.34-.97,.66-1.46,.98-.48,.33-.99,.61-1.44,.99l-1.38,1.06c-.47,.33-.89,.73-1.32,1.11-.42,.39-.87,.75-1.26,1.16l-1.19,1.22c-.4,.4-.73,.87-1.09,1.29-.18,.22-.36,.43-.53,.66l-.48,.69c-.33,.45-.66,.9-.93,1.39-.28,.48-.58,.95-.81,1.45-.25,.49-.5,.99-.69,1.5-.22,.51-.41,1.02-.58,1.54-.17,.52-.32,1.04-.43,1.56-.12,.5-.2,1.09-.23,1.48l-.5,7.14-2.35-6.65-.72-2.02c-.25-.67-.41-1.37-.56-2.06-.14-.7-.35-1.38-.44-2.09l-.29-2.1c-.12-.7-.1-1.41-.14-2.11-.04-.7-.06-1.41-.03-2.11,.02-.7,.03-1.4,.07-2.1,.06-.7,.13-1.39,.2-2.08,.07-.69,.21-1.38,.31-2.06,.1-.69,.23-1.37,.38-2.05,.15-.68,.3-1.35,.49-2.02,.19-.67,.35-1.34,.57-1.99,.21-.66,.42-1.31,.66-1.96,.24-.64,.46-1.29,.74-1.92,.52-1.27,1.11-2.51,1.78-3.71Z"/>
      </g>
    </g>
  </g>
</svg>