<?xml version="1.0" encoding="UTF-8"?>
<svg id="Layer_2" data-name="Layer 2" xmlns="http://www.w3.org/2000/svg" viewBox="0 0 137.31 76.8">
  <defs>
    <style>
      .cls-1 {
        fill: #fff;
      }

      .cls-2 {
        fill: #201600;
      }
    </style>
  </defs>
  <g id="Objects">
    <g>
      <path class="cls-2" d="M126.92,68.41c-1.11,6-5.52,9.56-9.91,8.05-32.2-10.73-66.57-16.16-101.68-15.88-4.8,0-9.21-2.45-9.8-5.59C3.67,44.75,1.63,34.55,.04,24.28c-.5-3.16,3.43-6.98,8.7-8.35C47.14,6.14,87.12,.8,128.43,0c5.69-.16,9.7,4.75,8.73,10.78-3.01,19.27-6.8,38.43-10.25,57.62Z"/>
      <path class="cls-1" d="M115.2,72.41c-.44,0-.89-.08-1.33-.23-30.83-10.27-63.3-15.48-96.52-15.48-.83,0-1.65,0-2.47,0-4.03,0-7.22-2.02-7.56-3.83-.52-2.86-1.06-5.73-1.59-8.59-1.29-6.89-2.62-14.01-3.71-21.04-.29-1.82,2.7-4.79,6.99-5.91C45.93,7.93,84.73,2.77,124.32,2h.22c1.9,0,3.6,.76,4.78,2.14,1.32,1.55,1.86,3.75,1.5,6.05-2.03,12.99-4.47,26.14-6.82,38.87-1.04,5.61-2.08,11.22-3.09,16.83-.71,3.84-3.06,6.53-5.71,6.53Z"/>
      <g>
        <path class="cls-1" d="M19.58,50.01s11.17,12.83-1.33,19.21c0,0,24.41,2.76,28.42-19.93"/>
        <path class="cls-2" d="M19.58,50.01c.72,.64,1.38,1.35,1.99,2.11,.62,.75,1.17,1.56,1.67,2.4,.51,.84,.93,1.75,1.29,2.7,.18,.47,.32,.96,.45,1.46,.13,.5,.2,1.01,.26,1.54,.04,.52,.07,1.06,.03,1.59-.03,.53-.09,1.08-.23,1.61-.1,.54-.31,1.06-.52,1.56l-.37,.74-.44,.7c-.31,.45-.65,.89-1.01,1.28-.37,.4-.75,.78-1.17,1.11-.4,.36-.85,.62-1.28,.93-.44,.28-.89,.52-1.34,.78l-.5-2.76c.68,.06,1.49,.08,2.24,.08,.77,0,1.53-.05,2.3-.08,1.53-.09,3.06-.28,4.56-.59,.75-.15,1.49-.33,2.23-.54,.74-.19,1.46-.42,2.18-.68,.72-.25,1.42-.55,2.11-.87,.68-.33,1.35-.68,2-1.07,.34-.18,.65-.39,.97-.6,.32-.21,.64-.41,.93-.65,.62-.44,1.19-.94,1.76-1.45,.53-.54,1.11-1.05,1.59-1.65,.52-.56,.97-1.19,1.43-1.81,.41-.66,.88-1.28,1.23-1.98l.56-1.03,.49-1.07c.36-.71,.6-1.46,.9-2.2,.28-.75,.5-1.52,.76-2.29-.09,.8-.14,1.61-.28,2.41-.16,.79-.28,1.61-.52,2.39l-.34,1.18-.43,1.16c-.27,.78-.66,1.52-1.02,2.26-.42,.72-.82,1.45-1.32,2.13-.46,.7-1.01,1.34-1.56,1.98-.58,.61-1.17,1.22-1.82,1.76-.31,.29-.65,.55-.98,.8-.33,.26-.67,.52-1.02,.75-.69,.49-1.43,.9-2.17,1.31-.75,.39-1.51,.75-2.29,1.08-1.55,.65-3.17,1.15-4.81,1.5-1.64,.36-3.29,.59-4.96,.72-.83,.06-1.67,.08-2.51,.07-.85-.01-1.65-.04-2.56-.13l-4.55-.48,4.05-2.29c.37-.21,.77-.4,1.13-.63,.35-.24,.73-.45,1.04-.72,.35-.24,.66-.51,.96-.79,.3-.28,.57-.58,.82-.9l.35-.49,.3-.52c.18-.36,.35-.72,.47-1.1,.15-.38,.23-.78,.3-1.19,.07-.41,.1-.83,.11-1.25,0-.43-.03-.86-.06-1.29-.05-.44-.11-.88-.2-1.31-.18-.88-.46-1.75-.76-2.62-.31-.87-.7-1.72-1.1-2.57-.42-.84-.86-1.69-1.37-2.5Z"/>
      </g>
    </g>
  </g>
</svg>