<?xml version="1.0" encoding="UTF-8"?>
<svg id="Layer_1" data-name="Layer 1" xmlns="http://www.w3.org/2000/svg" version="1.1" viewBox="0 0 512 512">
  <defs>
    <style>
      .cls-1 {
        fill: #fff;
        stroke-width: 0px;
      }
    </style>
  </defs>
  <path class="cls-1" d="M443.6,387.1l-131.2-131.7,131.5-130c5.4-5.4,5.4-14.2,0-19.6l-37.4-37.6c-2.6-2.6-6.1-4-9.8-4s-7.2,1.5-9.8,4l-130.9,129.6L124.9,68.3c-2.6-2.6-6.1-4-9.8-4s-7.2,1.5-9.8,4l-37.3,37.6c-5.4,5.4-5.4,14.2,0,19.6l131.5,130-131.1,131.6c-2.6,2.6-4.1,6.1-4.1,9.8s1.4,7.2,4.1,9.8l37.4,37.6c2.7,2.7,6.2,4.1,9.8,4.1s7.1-1.3,9.8-4.1l130.6-131.2,130.7,131.1c2.7,2.7,6.2,4.1,9.8,4.1s7.1-1.3,9.8-4.1l37.4-37.6c2.6-2.6,4.1-6.1,4.1-9.8,0-3.6-1.6-7.1-4.2-9.7Z"/>
</svg>