<?xml version="1.0" encoding="UTF-8"?>
<svg id="Layer_1" data-name="Layer 1" xmlns="http://www.w3.org/2000/svg" version="1.1" viewBox="0 0 512 512">
  <defs>
    <style>
      .cls-1 {
        fill: #fff;
        stroke-width: 0px;
      }
    </style>
  </defs>
  <path class="cls-1" d="M288.2,288.5c49.6,0,99.2.1,148.7.2,3.1,0,5.9-1.2,7.9-3.2s3.3-4.8,3.2-7.9v-42.6c-.1-3-1.2-5.8-3.3-7.9s-4.9-3.1-7.9-3.1h0c-49.8,0-99.6-.2-149.4-.3-21.4-.3-43-.6-64.8-.7-50.1-.3-99.5,0-148.1.9-3,0-5.7,1.2-7.8,3.3s-3.2,4.9-3.3,7.8l.2,42.6c0,6.1,5,11.1,11.1,11.1,49.5-.3,99-.6,148.6-.9,21.6.2,43.2.4,64.8.6Z"/>
  <path class="cls-1" d="M288.2,129.9c49.6,0,99.2.1,148.7.2,3.1,0,5.9-1.2,7.9-3.2s3.3-4.8,3.2-7.9v-42.6c-.1-3-1.2-5.8-3.3-7.9s-4.9-3.1-7.9-3.1h0c-49.8,0-99.6-.2-149.4-.3-21.4-.3-43-.6-64.8-.7-50.1-.3-99.5,0-148.1.9-3,0-5.7,1.2-7.8,3.3s-3.2,4.9-3.3,7.8l.2,42.6c0,6.1,5,11.1,11.1,11.1,49.5-.3,99-.6,148.6-.9,21.6.2,43.2.4,64.8.6Z"/>
  <path class="cls-1" d="M288.2,448c49.6,0,99.2.1,148.7.2,3.1,0,5.9-1.2,7.9-3.2s3.3-4.8,3.2-7.9v-42.6c-.1-3-1.2-5.8-3.3-7.9s-4.9-3.1-7.9-3.1h0c-49.8,0-99.6-.2-149.4-.3-21.4-.3-43-.6-64.8-.7-50.1-.3-99.5,0-148.1.9-3,0-5.7,1.2-7.8,3.3s-3.2,4.9-3.3,7.8l.2,42.6c0,6.1,5,11.1,11.1,11.1,49.5-.3,99-.6,148.6-.9,21.6.2,43.2.4,64.8.6Z"/>
</svg>