<?xml version="1.0" encoding="UTF-8"?>
<svg id="Layer_2" data-name="Layer 2" xmlns="http://www.w3.org/2000/svg" viewBox="0 0 122.16 43.8">
  <defs>
    <style>
      .cls-1 {
        fill: #ed1c24;
      }

      .cls-1, .cls-2 {
        stroke-width: 0px;
      }

      .cls-2 {
        fill: #f0f0f0;
      }
    </style>
  </defs>
  <g id="Layer_1-2" data-name="Layer 1">
    <g>
      <path class="cls-2" d="M46.86,43.8c-2.6,0-4.95-.66-7.05-1.98-2.1-1.32-3.76-3.11-4.98-5.37-1.22-2.26-1.83-4.79-1.83-7.59s.61-5.39,1.83-7.65c1.22-2.26,2.88-4.06,4.98-5.4,2.1-1.34,4.45-2.01,7.05-2.01,2.2,0,4.15.47,5.85,1.41,1.7.94,3.05,2.23,4.05,3.87,1,1.64,1.5,3.5,1.5,5.58v8.28c0,2.08-.49,3.94-1.47,5.58-.98,1.64-2.33,2.93-4.05,3.87-1.72.94-3.68,1.41-5.88,1.41ZM47.94,37.56c2.44,0,4.41-.82,5.91-2.46,1.5-1.64,2.25-3.74,2.25-6.3,0-1.72-.34-3.24-1.02-4.56-.68-1.32-1.63-2.35-2.85-3.09-1.22-.74-2.65-1.11-4.29-1.11s-3.01.37-4.23,1.11c-1.22.74-2.18,1.77-2.88,3.09-.7,1.32-1.05,2.84-1.05,4.56s.35,3.24,1.05,4.56c.7,1.32,1.66,2.35,2.88,3.09,1.22.74,2.63,1.11,4.23,1.11ZM55.68,43.2v-7.74l1.14-7.02-1.14-6.96v-7.08h6.6v28.8h-6.6Z"/>
      <path class="cls-2" d="M79.02,43.8c-1.6,0-3.14-.21-4.62-.63-1.48-.42-2.84-1.02-4.08-1.8-1.24-.78-2.32-1.73-3.24-2.85l4.2-4.2c1,1.16,2.15,2.03,3.45,2.61,1.3.58,2.77.87,4.41.87,1.48,0,2.6-.22,3.36-.66.76-.44,1.14-1.08,1.14-1.92s-.36-1.56-1.08-2.04c-.72-.48-1.65-.89-2.79-1.23s-2.34-.69-3.6-1.05c-1.26-.36-2.46-.85-3.6-1.47-1.14-.62-2.07-1.47-2.79-2.55-.72-1.08-1.08-2.48-1.08-4.2,0-1.84.43-3.42,1.29-4.74.86-1.32,2.08-2.34,3.66-3.06,1.58-.72,3.47-1.08,5.67-1.08,2.32,0,4.37.41,6.15,1.23,1.78.82,3.27,2.05,4.47,3.69l-4.2,4.2c-.84-1.04-1.8-1.82-2.88-2.34-1.08-.52-2.32-.78-3.72-.78-1.32,0-2.34.2-3.06.6-.72.4-1.08.98-1.08,1.74,0,.8.36,1.42,1.08,1.86.72.44,1.65.82,2.79,1.14,1.14.32,2.34.67,3.6,1.05s2.46.9,3.6,1.56c1.14.66,2.07,1.54,2.79,2.64.72,1.1,1.08,2.53,1.08,4.29,0,2.8-.98,5.02-2.94,6.66-1.96,1.64-4.62,2.46-7.98,2.46Z"/>
      <path class="cls-2" d="M108.78,43.8c-2.88,0-5.47-.65-7.77-1.95-2.3-1.3-4.12-3.09-5.46-5.37-1.34-2.28-2.01-4.84-2.01-7.68s.66-5.39,1.98-7.65c1.32-2.26,3.11-4.05,5.37-5.37,2.26-1.32,4.77-1.98,7.53-1.98s5.05.62,7.11,1.86c2.06,1.24,3.68,2.94,4.86,5.1s1.77,4.62,1.77,7.38c0,.48-.03.97-.09,1.47-.06.5-.15,1.05-.27,1.65h-23.64v-5.4h20.22l-2.46,2.16c-.08-1.76-.42-3.24-1.02-4.44-.6-1.2-1.45-2.12-2.55-2.76-1.1-.64-2.45-.96-4.05-.96-1.68,0-3.14.36-4.38,1.08-1.24.72-2.2,1.73-2.88,3.03-.68,1.3-1.02,2.85-1.02,4.65s.36,3.38,1.08,4.74c.72,1.36,1.74,2.41,3.06,3.15,1.32.74,2.84,1.11,4.56,1.11,1.48,0,2.85-.26,4.11-.78,1.26-.52,2.33-1.28,3.21-2.28l4.2,4.26c-1.4,1.64-3.1,2.88-5.1,3.72s-4.12,1.26-6.36,1.26Z"/>
      <path class="cls-2" d="M27.45,21.21c-1.22-2.26-2.88-4.06-4.98-5.4-2.1-1.34-4.45-2.01-7.05-2.01-2.04,0-3.87.43-5.52,1.27v6.2c.06-.04.12-.09.18-.13,1.24-.74,2.66-1.11,4.26-1.11s3.01.37,4.23,1.11c1.22.74,2.18,1.77,2.88,3.09.7,1.32,1.05,2.84,1.05,4.56s-.35,3.24-1.05,4.56c-.7,1.32-1.66,2.35-2.88,3.09-1.22.74-2.63,1.11-4.23,1.11s-3.02-.37-4.26-1.11c-.06-.04-.12-.09-.18-.13v6.23c1.63.82,3.47,1.24,5.52,1.24,2.6,0,4.95-.66,7.05-1.98,2.1-1.32,3.76-3.11,4.98-5.37,1.22-2.26,1.83-4.79,1.83-7.59s-.61-5.39-1.83-7.65Z"/>
      <rect class="cls-1" width="6.6" height="43.2"/>
    </g>
  </g>
</svg>